<svg xmlns="http://www.w3.org/2000/svg" xmlns:xlink="http://www.w3.org/1999/xlink" width="500" zoomAndPan="magnify" viewBox="0 0 375 374.999991" height="500" preserveAspectRatio="xMidYMid meet" version="1.0"><defs><g/><clipPath id="16abf71ca2"><path d="M 266.40625 193.230469 L 375 193.230469 L 375 301.824219 L 266.40625 301.824219 Z M 266.40625 193.230469 " clip-rule="nonzero"/></clipPath><clipPath id="1b7b00f699"><path d="M 320.703125 193.230469 L 375 247.527344 L 320.703125 301.824219 L 266.40625 247.527344 Z M 320.703125 193.230469 " clip-rule="nonzero"/></clipPath></defs><g fill="#2b2b2b" fill-opacity="1"><g transform="translate(1.404774, 322.683228)"><g><path d="M 2.96875 -295.4375 L 2.96875 -296.625 L 108.5625 -296.625 L 108.5625 -295.4375 C 108.5625 -295.4375 107.671875 -294.84375 105.890625 -293.65625 C 104.109375 -292.46875 102.128906 -289.992188 99.953125 -286.234375 C 97.785156 -282.484375 95.8125 -276.703125 94.03125 -268.890625 C 92.25 -261.078125 91.359375 -250.445312 91.359375 -237 L 91.359375 -191.625 C 92.742188 -205.863281 96.847656 -219.503906 103.671875 -232.546875 C 110.492188 -245.597656 119.09375 -257.265625 129.46875 -267.546875 C 139.851562 -277.835938 151.375 -286 164.03125 -292.03125 C 176.6875 -298.0625 189.640625 -301.078125 202.890625 -301.078125 C 227.015625 -301.078125 243.03125 -293.460938 250.9375 -278.234375 L 223.65625 -209.421875 C 216.34375 -215.742188 209.570312 -220.929688 203.34375 -224.984375 C 197.113281 -229.046875 190.535156 -232.113281 183.609375 -234.1875 C 176.691406 -236.257812 168.285156 -237.296875 158.390625 -237.296875 C 145.347656 -237.296875 134.273438 -234.523438 125.171875 -228.984375 C 116.078125 -223.453125 109.15625 -216.726562 104.40625 -208.8125 C 99.664062 -200.90625 97.296875 -193.195312 97.296875 -185.6875 C 97.296875 -180.738281 98.628906 -176.976562 101.296875 -174.40625 C 103.960938 -171.84375 107.125 -170.066406 110.78125 -169.078125 C 114.445312 -168.085938 117.613281 -167.539062 120.28125 -167.4375 C 122.945312 -167.34375 124.28125 -167.296875 124.28125 -167.296875 L 157.21875 -167.296875 C 163.9375 -167.296875 169.617188 -164.773438 174.265625 -159.734375 C 178.910156 -154.691406 183.410156 -147.96875 187.765625 -139.5625 C 192.117188 -131.15625 197.160156 -121.8125 202.890625 -111.53125 C 205.460938 -106.78125 208.972656 -100.15625 213.421875 -91.65625 C 217.867188 -83.15625 222.757812 -73.910156 228.09375 -63.921875 C 233.4375 -53.929688 238.675781 -44.335938 243.8125 -35.140625 C 248.957031 -25.953125 253.609375 -18.242188 257.765625 -12.015625 C 261.921875 -5.785156 265.085938 -2.175781 267.265625 -1.1875 L 267.265625 0 L 206.453125 0 C 197.359375 0 190.285156 -1.429688 185.234375 -4.296875 C 180.191406 -7.171875 175.300781 -12.859375 170.5625 -21.359375 C 163.4375 -34.410156 156.957031 -46.421875 151.125 -57.390625 C 145.289062 -68.367188 139.503906 -79.34375 133.765625 -90.3125 C 128.035156 -101.289062 121.8125 -113.304688 115.09375 -126.359375 C 111.925781 -132.492188 109.203125 -137.984375 106.921875 -142.828125 C 104.648438 -147.671875 102.328125 -152.515625 99.953125 -157.359375 C 97.585938 -162.203125 94.722656 -167.691406 91.359375 -173.828125 L 91.359375 -59.625 C 91.359375 -46.375 92.25 -35.789062 94.03125 -27.875 C 95.8125 -19.96875 97.785156 -14.132812 99.953125 -10.375 C 102.128906 -6.625 104.109375 -4.15625 105.890625 -2.96875 C 107.671875 -1.78125 108.5625 -1.1875 108.5625 -1.1875 L 108.5625 0 L 2.96875 0 L 2.96875 -1.1875 C 2.96875 -1.1875 3.859375 -1.78125 5.640625 -2.96875 C 7.421875 -4.15625 9.394531 -6.625 11.5625 -10.375 C 13.738281 -14.132812 15.71875 -19.96875 17.5 -27.875 C 19.28125 -35.789062 20.171875 -46.375 20.171875 -59.625 L 20.171875 -237 C 20.171875 -250.445312 19.28125 -261.078125 17.5 -268.890625 C 15.71875 -276.703125 13.738281 -282.484375 11.5625 -286.234375 C 9.394531 -289.992188 7.421875 -292.46875 5.640625 -293.65625 C 3.859375 -294.84375 2.96875 -295.4375 2.96875 -295.4375 Z M 2.96875 -295.4375 "/></g></g></g><g clip-path="url(#16abf71ca2)"><g clip-path="url(#1b7b00f699)"><path fill="#2b2b2b" d="M 266.40625 193.230469 L 375 193.230469 L 375 301.824219 L 266.40625 301.824219 Z M 266.40625 193.230469 " fill-opacity="1" fill-rule="nonzero"/></g></g></svg>